<svg xmlns="http://www.w3.org/2000/svg" xmlns:xlink="http://www.w3.org/1999/xlink" id="visual" viewBox="0 0 3000 250" width="3000" height="250" version="1.1"><path d="M0 128L27.8 116.7C55.7 105.3 111.3 82.7 166.8 79C222.3 75.3 277.7 90.7 333.2 99.5C388.7 108.3 444.3 110.7 500 101.8C555.7 93 611.3 73 666.8 78.5C722.3 84 777.7 115 833.2 120.7C888.7 126.3 944.3 106.7 1000 99.8C1055.7 93 1111.3 99 1166.8 103.7C1222.3 108.3 1277.7 111.7 1333.2 109.8C1388.7 108 1444.3 101 1500 104.7C1555.7 108.3 1611.3 122.7 1666.8 125.3C1722.3 128 1777.7 119 1833.2 119.7C1888.7 120.3 1944.3 130.7 2000 135.8C2055.7 141 2111.3 141 2166.8 137.8C2222.3 134.7 2277.7 128.3 2333.2 121.8C2388.7 115.3 2444.3 108.7 2500 107.3C2555.7 106 2611.3 110 2666.8 118.8C2722.3 127.7 2777.7 141.3 2833.2 141.5C2888.7 141.7 2944.3 128.3 2972.2 121.7L3000 115L3000 251L2972.2 251C2944.3 251 2888.7 251 2833.2 251C2777.7 251 2722.3 251 2666.8 251C2611.3 251 2555.7 251 2500 251C2444.3 251 2388.7 251 2333.2 251C2277.7 251 2222.3 251 2166.8 251C2111.3 251 2055.7 251 2000 251C1944.3 251 1888.7 251 1833.2 251C1777.7 251 1722.3 251 1666.8 251C1611.3 251 1555.7 251 1500 251C1444.3 251 1388.7 251 1333.2 251C1277.7 251 1222.3 251 1166.8 251C1111.3 251 1055.7 251 1000 251C944.3 251 888.7 251 833.2 251C777.7 251 722.3 251 666.8 251C611.3 251 555.7 251 500 251C444.3 251 388.7 251 333.2 251C277.7 251 222.3 251 166.8 251C111.3 251 55.7 251 27.8 251L0 251Z" fill="#e8b30b"/><path d="M0 175L27.8 173.8C55.7 172.7 111.3 170.3 166.8 175C222.3 179.7 277.7 191.3 333.2 195C388.7 198.7 444.3 194.3 500 188.8C555.7 183.3 611.3 176.7 666.8 168C722.3 159.3 777.7 148.7 833.2 151.5C888.7 154.3 944.3 170.7 1000 168.7C1055.7 166.7 1111.3 146.3 1166.8 145.2C1222.3 144 1277.7 162 1333.2 165.7C1388.7 169.3 1444.3 158.7 1500 156.5C1555.7 154.3 1611.3 160.7 1666.8 157.7C1722.3 154.7 1777.7 142.3 1833.2 142.7C1888.7 143 1944.3 156 2000 158.3C2055.7 160.7 2111.3 152.3 2166.8 155C2222.3 157.7 2277.7 171.3 2333.2 179C2388.7 186.7 2444.3 188.3 2500 184.8C2555.7 181.3 2611.3 172.7 2666.8 164.8C2722.3 157 2777.7 150 2833.2 152.3C2888.7 154.7 2944.3 166.3 2972.2 172.2L3000 178L3000 251L2972.2 251C2944.3 251 2888.7 251 2833.2 251C2777.7 251 2722.3 251 2666.8 251C2611.3 251 2555.7 251 2500 251C2444.3 251 2388.7 251 2333.2 251C2277.7 251 2222.3 251 2166.8 251C2111.3 251 2055.7 251 2000 251C1944.3 251 1888.7 251 1833.2 251C1777.7 251 1722.3 251 1666.8 251C1611.3 251 1555.7 251 1500 251C1444.3 251 1388.7 251 1333.2 251C1277.7 251 1222.3 251 1166.8 251C1111.3 251 1055.7 251 1000 251C944.3 251 888.7 251 833.2 251C777.7 251 722.3 251 666.8 251C611.3 251 555.7 251 500 251C444.3 251 388.7 251 333.2 251C277.7 251 222.3 251 166.8 251C111.3 251 55.7 251 27.8 251L0 251Z" fill="#000000"/></svg>